<svg version="1.1" viewBox="0.0 0.0 938.2388451443569 193.16797900262466" fill="none" stroke="none" stroke-linecap="square" stroke-miterlimit="10" xmlns:xlink="http://www.w3.org/1999/xlink" xmlns="http://www.w3.org/2000/svg"><clipPath id="p.0"><path d="m0 0l938.23883 0l0 193.16798l-938.23883 0l0 -193.16798z" clip-rule="nonzero"/></clipPath><g clip-path="url(#p.0)"><path fill="#000000" fill-opacity="0.0" d="m0 0l938.23883 0l0 193.16798l-938.23883 0z" fill-rule="evenodd"/><path fill="#000000" fill-opacity="0.0" d="m-16.700787 -51.097115l951.1496 0l0 420.28345l-951.1496 0z" fill-rule="evenodd"/><path fill="#ff0000" d="m26.502338 149.9029l-17.0 0q-4.203125 0 -4.203125 -4.203125l0 -120.20313q0 -4.1875 4.203125 -4.1875l63.79687 0q4.0 0 4.0 4.1875l0 13.609373q0 4.203125 -4.0 4.203125l-40.20312 0q-2.390625 0 -2.390625 2.1875l0 31.0q0 2.40625 2.390625 2.40625l34.20312 0q4.203125 0 4.203125 4.203125l0 13.390625q0 4.40625 -4.203125 4.40625l-34.20312 0q-2.390625 0 -2.390625 2.203125l0 42.593758q0 4.203125 -4.203125 4.203125zm67.79689 -119.20313l0 -17.390625q0 -4.0 4.0 -4.0l17.40625 0q4.0 0 4.0 3.796875l0 17.59375q0 3.999998 -4.0 3.999998l-17.40625 0q-4.0 0 -4.0 -3.999998zm0 115.00001l0 -93.59376q0 -4.203125 4.0 -4.203125l17.203125 0q4.203125 0 4.203125 4.203125l0 93.59376q0 2.609375 -0.90625 3.40625q-0.90625 0.796875 -3.09375 0.796875l-17.203125 0q-4.203125 0 -4.203125 -4.203125zm69.603134 4.203125l-17.0 0q-4.203125 0 -4.203125 -4.203125l0 -93.59376q0 -4.203125 4.203125 -4.203125l17.0 0q4.203125 0 4.203125 4.203125l0 6.796875l0.796875 0q2.203125 -5.40625 7.796875 -8.203125q5.59375 -2.796875 11.796875 -2.796875l7.203125 0q4.0 0 4.0 4.203125l0 13.796875q0 2.40625 -0.90625 3.3125q-0.890625 0.890625 -3.09375 0.6875l-13.796875 0q-13.796875 0 -13.796875 15.59375l0 60.203133q0 4.203125 -4.203125 4.203125zm123.80003 0l-44.20314 0q-15.796875 0 -24.40625 -8.390625q-8.59375 -8.40625 -8.59375 -24.203133l0 -36.8125q0 -15.796875 8.59375 -24.1875q8.609375 -8.40625 24.40625 -8.40625l15.79689 0q15.796875 0 24.390625 8.40625q8.609375 8.390625 8.609375 24.1875l0 25.40625q0 4.203125 -4.203125 4.203125l-50.187515 0q-2.40625 0 -2.40625 2.203125l0 4.390625q0 6.203125 2.703125 8.90625q2.703125 2.7031326 9.09375 2.7031326l40.406265 0q4.203125 0 4.203125 4.390625l0 13.203125q0 2.203125 -0.90625 3.109375q-0.90625 0.890625 -3.296875 0.890625zm-49.79689 -56.796883l27.187515 0q2.203125 0 2.203125 -2.203125l0 -9.59375q0 -6.40625 -2.609375 -9.0q-2.59375 -2.609375 -8.98439 -2.609375l-8.40625 0q-6.390625 0 -9.0 2.609375q-2.59375 2.59375 -2.59375 9.0l0 9.59375q0 2.203125 2.203125 2.203125z" fill-rule="nonzero"/><path fill="#ffff00" d="m427.2993 149.9029l-65.796875 0q-4.203125 0 -4.203125 -4.203125l0 -120.20313q0 -4.1875 4.203125 -4.1875l17.0 0q4.203125 0 4.203125 4.1875l0 100.0q0 2.203125 2.390625 2.203125l42.203125 0q4.0 0 4.0 4.4062576l0 13.59375q0 4.203125 -4.0 4.203125zm18.800018 -119.20313l0 -17.390625q0 -4.0 4.0 -4.0l17.40625 0q4.0 0 4.0 3.796875l0 17.59375q0 3.999998 -4.0 3.999998l-17.40625 0q-4.0 0 -4.0 -3.999998zm0 115.00001l0 -93.59376q0 -4.203125 4.0 -4.203125l17.203125 0q4.203125 0 4.203125 4.203125l0 93.59376q0 2.609375 -0.90625 3.40625q-0.90625 0.796875 -3.09375 0.796875l-17.203125 0q-4.203125 0 -4.203125 -4.203125zm97.19684 4.203125l-17.796875 0q-15.7968445 0 -24.40622 -8.390625q-8.59375 -8.40625 -8.59375 -24.203133l0 -36.8125q0 -15.796875 8.59375 -24.1875q8.609375 -8.40625 24.40622 -8.40625l17.796875 0q15.609375 0 24.296875 8.5q8.703125 8.5 8.703125 24.09375l0 36.8125q0 15.593758 -8.703125 24.093758q-8.6875 8.5 -24.296875 8.5zm-14.0 -21.796875l10.203125 0q6.40625 0 9.09375 -2.5937576q2.703125 -2.609375 2.703125 -9.015625l0 -35.1875q0 -6.40625 -2.703125 -9.0q-2.6875 -2.609375 -9.09375 -2.609375l-10.203125 0q-6.390625 0 -9.0 2.609375q-2.59375 2.59375 -2.59375 9.0l0 35.1875q0 6.40625 2.59375 9.015625q2.609375 2.5937576 9.0 2.5937576zm88.2063 21.796875l-17.0 0q-4.203125 0 -4.203125 -4.203125l0 -93.59376q0 -4.203125 4.203125 -4.203125l17.0 0q4.203125 0 4.203125 4.203125l0 6.59375l0.796875 0q4.390625 -10.796875 19.59375 -10.796875l6.40625 0q31.390625 0 31.390625 32.59375l0 65.20313q0 4.203125 -4.390625 4.203125l-16.796875 0q-4.203125 0 -4.203125 -4.203125l0 -64.00001q0 -6.390625 -2.703125 -9.09375q-2.703125 -2.703125 -9.09375 -2.703125l-7.203125 0q-13.796875 0 -13.796875 15.203125l0 60.593758q0 4.203125 -4.203125 4.203125zm121.9906 0l-38.0 0q-4.0 0 -4.0 -4.203125l0 -12.796875q0 -2.203125 0.796875 -3.09375q0.8125 -0.90625 3.203125 -0.90625l33.40625 0q9.796875 0 9.796875 -6.0000076l0 -1.0q0 -4.796875 -8.203125 -9.203125l-19.796875 -11.0q-10.203125 -5.203125 -15.0 -11.203125q-4.796875 -6.0 -4.796875 -15.390625q0 -14.0 7.390625 -20.59375q7.40625 -6.609375 23.203125 -6.609375l33.40625 0q4.0 0 4.0 4.203125l0 13.0q0 2.203125 -0.796875 3.109375q-0.796875 0.890625 -3.203125 0.890625l-27.796875 0q-9.796875 0 -9.796875 5.0l0 1.0q0 4.390625 8.59375 9.0l20.203125 12.0q10.390625 5.59375 14.59375 11.5q4.203125 5.890625 4.203125 15.5q0 26.796883 -31.40625 26.796883z" fill-rule="nonzero"/><path fill="#666666" d="m802.38574 87.69976l0 60.109383q0 2.09375 -2.109375 2.09375l-8.5 0q-2.09375 0 -2.09375 -2.09375l0 -60.109383q0 -2.09375 2.09375 -2.09375l8.5 0q2.109375 0 2.109375 2.09375zm23.090576 62.203133l-8.5 0q-2.09375 0 -2.09375 -2.09375l0 -46.812508q0 -2.09375 2.09375 -2.09375l8.5 0q2.109375 0 2.109375 2.09375l0 3.3125l0.390625 0q2.203125 -5.40625 9.8125 -5.40625l3.1875 0q15.703125 0 15.703125 16.296875l0 32.609383q0 2.09375 -2.203125 2.09375l-8.390625 0q-2.109375 0 -2.109375 -2.09375l0 -32.000008q0 -3.203125 -1.34375 -4.546875q-1.34375 -1.359375 -4.546875 -1.359375l-3.609375 0q-6.890625 0 -6.890625 7.59375l0 30.312508q0 2.09375 -2.109375 2.09375zm74.20624 -8.90625l0 6.90625q0 1.09375 -0.453125 1.546875q-0.453125 0.453125 -1.640625 0.453125l-14.90625 0q-7.90625 0 -12.203125 -4.203125q-4.296875 -4.203125 -4.296875 -12.09375l0 -18.406258q0 -7.890625 4.296875 -12.09375q4.296875 -4.203125 12.203125 -4.203125l14.90625 0q2.09375 0 2.09375 2.09375l0 6.90625q0 1.09375 -0.453125 1.546875q-0.453125 0.453125 -1.640625 0.453125l-12.90625 0q-3.09375 0 -4.453125 1.359375q-1.34375 1.34375 -1.34375 4.546875l0 17.187508q0 3.203125 1.34375 4.5625q1.359375 1.34375 4.453125 1.34375l12.90625 0q2.09375 0 2.09375 2.09375zm19.693726 -5.5l0 12.3125q0 2.09375 -1.890625 2.09375l-8.90625 0q-2.0 0 -2.0 -2.09375l0 -12.203125q0 -2.0 2.0 -2.0l8.90625 0q1.890625 0 1.890625 1.890625z" fill-rule="nonzero"/></g></svg>